:version 1.10
:name ASF
:units
  mass 1
  length 1
  angle deg
:documentation
  ASF file generated by Kaydara
:root
  axis xyz
  order  tx ty tz rx ry rz
  position 0 0 0
  orientation 0 0 0
:bonedata
  begin
    id 1
    name LeftUpLegDummy
    direction 1 -2.30186e-007 -8.31532e-007
    length 2.93387
    axis 0 0 0 xyz
  end
  begin
    id 2
    name LeftUpLeg
    direction -1.82929e-007 -1 -1.48925e-009
    length 17.3336
    axis -3.48766 0.00143442 -0.000521554 xyz
    dof rx ry rz
  end
  begin
    id 3
    name LeftLeg
    direction -1.82929e-007 -1 -5.23717e-011
    length 14.9995
    axis 3.68178 -0.00654042 -0.000282425 xyz
    dof rx ry rz
  end
  begin
    id 4
    name LeftFoot
    direction 8.31532e-007 -4.54534e-011 1
    length 6.74421
    axis 1.87234e-006 4.66016e-005 -5.96866e-006 xyz
    dof rx ry rz
  end
  begin
    id 5
    name LeftToes
    direction 0.00818058 -0.00485161 0.999955
    length 3.85048
    axis 1.06247e-005 4.65869e-005 -5.96999e-006 xyz
    dof rx ry rz
  end
  begin
    id 6
    name SpineDummy
    direction -5.8607e-008 0.943407 -0.331637
    length 5.93572
    axis 0 0 0 xyz
  end
  begin
    id 7
    name Spine
    direction -1.04988e-007 0.999988 0.00495137
    length 10.1015
    axis -0.001389 0.000121417 6.61666e-006 xyz
    dof rx ry rz
  end
  begin
    id 8
    name Spine1
    direction 0 0 0
    length 0
    axis -0.001389 0.00012144 6.56766e-006 xyz
    dof rx ry rz
  end
  begin
    id 9
    name RightShoulderDummy
    direction -0.98348 0.17941 -0.0240696
    length 3.59882
    axis -0.001389 0.00012144 6.56766e-006 xyz
  end
  begin
    id 10
    name RightShoulder
    direction -0.978693 0.204882 0.0135597
    length 2.70001
    axis 0.215806 0.000203631 -0.00679732 xyz
    dof rx ry rz
  end
  begin
    id 11
    name RightArm
    direction -1 3.85509e-006 8.31394e-007
    length 10.2459
    axis -23.2009 -0.134239 -0.964098 xyz
    dof rx ry rz
  end
  begin
    id 12
    name RightForeArm
    direction -1 3.85569e-006 8.3129e-007
    length 8.16799
    axis -9.92322 0.0658061 0.17887 xyz
    dof rx ry rz
  end
  begin
    id 13
    name RightHand
    direction -0.992843 -0.0414604 0.112003
    length 5.28593
    axis -0.00960638 0.00330669 -0.185225 xyz
    dof rx ry rz
  end
  begin
    id 14
    name LeftShoulder1Dummy
    direction 0.983523 0.179172 -0.0240748
    length 3.59866
    axis -0.001389 0.00012144 6.56766e-006 xyz
  end
  begin
    id 15
    name LeftShoulder1
    direction 0.978627 0.205195 0.0135605
    length 2.70019
    axis -0.001389 0.00012144 6.57583e-006 xyz
    dof rx ry rz
  end
  begin
    id 16
    name LeftArm
    direction 1 3.51895e-006 -8.60188e-007
    length 10.2459
    axis -23.1894 0.134785 0.967513 xyz
    dof rx ry rz
  end
  begin
    id 17
    name LeftForeArm
    direction 1 3.51921e-006 -7.32029e-007
    length 8.16799
    axis -9.91835 -0.0656957 -0.177789 xyz
    dof rx ry rz
  end
  begin
    id 18
    name LeftHand
    direction 0.992938 -0.0411636 0.11126
    length 5.32135
    axis -0.00960237 -0.00340661 0.185177 xyz
    dof rx ry rz
  end
  begin
    id 19
    name HEadDummy
    direction 1.01974e-006 0.999861 -0.016675
    length 2.99946
    axis -0.001389 0.00012144 6.56766e-006 xyz
  end
  begin
    id 20
    name HEad
    direction -0.0222689 0.980941 0.193023
    length 5.12695
    axis -0.001389 0.00012144 6.56766e-006 xyz
    dof rx ry rz
  end
  begin
    id 21
    name RightUpLegDummy
    direction -1 2.30186e-007 8.31532e-007
    length 2.93387
    axis 0 0 0 xyz
  end
  begin
    id 22
    name RightUpLeg
    direction -1.82966e-007 -1 1.56832e-007
    length 17.3336
    axis -3.4909 -0.000906625 0.00028951 xyz
    dof rx ry rz
  end
  begin
    id 23
    name RightLeg
    direction -1.82786e-007 -1 -1.80317e-007
    length 14.9995
    axis 3.68513 0.0193739 -0.131021 xyz
    dof rx ry rz
  end
  begin
    id 24
    name RightFoot
    direction 8.31721e-007 -4.63324e-011 1
    length 6.74421
    axis 4.81691e-005 -0.120479 -0.188785 xyz
    dof rx ry rz
  end
  begin
    id 25
    name RightToes
    direction 0.00124746 -0.014064 0.9999
    length 3.85082
    axis 0.000481921 0.542163 -0.142575 xyz
    dof rx ry rz
  end
:hierarchy
  begin
    root LeftUpLegDummy SpineDummy RightUpLegDummy
    LeftUpLegDummy LeftUpLeg
    LeftUpLeg LeftLeg
    LeftLeg LeftFoot
    LeftFoot LeftToes
    SpineDummy Spine
    Spine Spine1
    Spine1 RightShoulderDummy LeftShoulder1Dummy HEadDummy
    RightShoulderDummy RightShoulder
    RightShoulder RightArm
    RightArm RightForeArm
    RightForeArm RightHand
    LeftShoulder1Dummy LeftShoulder1
    LeftShoulder1 LeftArm
    LeftArm LeftForeArm
    LeftForeArm LeftHand
    HEadDummy HEad
    RightUpLegDummy RightUpLeg
    RightUpLeg RightLeg
    RightLeg RightFoot
    RightFoot RightToes
  end

:SAMPLES-PER-SECOND 30
:FULLY-SPECIFIED
:DEGREES
301
root  -1.42048 34.1033 -3.13189 8.92035 49.4507 1.08989
LeftUpLeg  -12.0699 10.2376 -3.11915
LeftLeg  12.5083 2.37293 0.366915
LeftFoot  -2.01145 0.00178648 -0.0929512
LeftToes  -12.4252 6.91067e-007 1.07128e-007
Spine  2.17299 0.661009 -2.67364
Spine1  3.82813 1.4847 -5.37545
RightShoulder  0.117953 8.54427 6.82556
RightArm  -6.54347 0.00969618 81.9287
RightForeArm  19.23 25.5764 4.83669
RightHand  0.358076 -7.68654 -4.95218
LeftShoulder1  0.0734121 -5.20756 -10.183
LeftArm  3.6546 -0.332839 -70.3398
LeftForeArm  17.6857 -34.2792 -6.89861
LeftHand  0.00930366 5.28613 -0.168198
HEad  -18.1802 -15.031 2.45215
RightUpLeg  -20.724 -18.6163 -2.67067
RightLeg  7.59891 6.33677 0.434847
RightFoot  16.5686 -0.212024 1.83356
RightToes  -33.0294 -0.165328 -0.27246
302
root  -1.45729 34.1256 -3.2837 8.18902 48.2451 0.546494
LeftUpLeg  -11.8991 11.0756 -2.98326
LeftLeg  12.4555 2.7406 0.421367
LeftFoot  -1.92198 0.00237036 -0.0968303
LeftToes  -12.0458 6.91067e-007 1.07128e-007
Spine  2.1894 1.22726 -2.91637
Spine1  3.82237 2.66905 -5.88379
RightShoulder  0.12545 8.46675 6.8071
RightArm  -4.36579 -0.354622 83.459
RightForeArm  20.5286 24.8642 4.68276
RightHand  0.300148 -7.42939 -4.24679
LeftShoulder1  0.0682412 -4.92466 -10.7436
LeftArm  4.3866 1.66922 -70.7933
LeftForeArm  19.5349 -32.2796 -6.38991
LeftHand  -0.0103035 4.82524 -0.613605
HEad  -17.5321 -15.3973 2.29444
RightUpLeg  -21.66 -19.972 -1.52176
RightLeg  8.40119 6.25906 0.517523
RightFoot  17.411 -0.234563 1.90928
RightToes  -32.0977 -0.158629 -0.266278
303
root  -1.51726 34.1545 -3.43789 7.32794 47.8874 -0.219271
LeftUpLeg  -11.942 11.0206 -2.62614
LeftLeg  12.6474 3.26215 0.51291
LeftFoot  -1.83891 0.00314953 -0.105955
LeftToes  -11.6 6.91067e-007 1.07128e-007
Spine  2.21283 1.49512 -3.0386
Spine1  3.86025 3.23113 -6.14691
RightShoulder  0.131377 8.55719 6.61615
RightArm  -2.29358 -1.18169 84.7125
RightForeArm  20.7584 24.1996 4.54066
RightHand  0.256828 -7.54254 -3.52173
LeftShoulder1  0.0643763 -4.8048 -10.9398
LeftArm  4.09146 3.93055 -71.2579
LeftForeArm  21.1247 -28.9032 -5.58042
LeftHand  -0.00182623 4.73877 -0.413486
HEad  -17.2908 -15.7663 2.42779
RightUpLeg  -22.3369 -20.8892 -0.664194
RightLeg  9.22031 6.44575 0.625555
RightFoot  18.2596 -0.270968 2.06345
RightToes  -32.1915 -0.159299 -0.266905
304
root  -1.5914 34.1582 -3.55875 6.56506 48.5613 -1.06682
LeftUpLeg  -12.4006 10.3918 -2.14703
LeftLeg  13.3081 3.32963 0.562861
LeftFoot  -2.00749 0.00433786 -0.123011
LeftToes  -11.1949 6.91067e-007 1.07128e-007
Spine  2.27881 1.30812 -2.99966
Spine1  4.03694 2.77165 -5.99647
RightShoulder  0.127929 8.64162 6.40762
RightArm  -0.521425 -2.28872 85.3778
RightForeArm  20.7989 23.7606 4.44762
RightHand  0.140367 -7.14044 -1.87772
LeftShoulder1  0.0802659 -5.07409 -11.7852
LeftArm  1.96802 6.06033 -70.5861
LeftForeArm  20.4821 -24.1135 -4.52005
LeftHand  -0.0777118 3.4754 -2.92523
HEad  -17.5131 -16.1855 2.68624
RightUpLeg  -22.8856 -21.617 -0.188651
RightLeg  10.2664 6.76209 0.780585
RightFoot  18.6103 -0.296789 2.18868
RightToes  -33.9166 -0.1718 -0.278245
305
root  -1.64109 34.1257 -3.67891 5.83312 50.0535 -2.01479
LeftUpLeg  -13.2501 9.39846 -1.66361
LeftLeg  14.4988 2.94859 0.561429
LeftFoot  -2.52864 0.005848 -0.146002
LeftToes  -10.6739 6.91067e-007 1.07128e-007
Spine  2.41302 0.826995 -2.90178
Spine1  4.3284 1.68947 -5.66377
RightShoulder  0.127663 8.88162 6.58149
RightArm  -0.934069 -3.47255 85.2018
RightForeArm  21.662 23.0266 4.29352
RightHand  -0.0949918 -6.16951 2.13026
LeftShoulder1  0.120913 -5.44756 -12.3308
LeftArm  -2.33165 6.99593 -69.337
LeftForeArm  17.9298 -20.7279 -3.81957
LeftHand  -0.584397 6.57733 -10.5028
HEad  -17.9742 -16.7115 2.99001
RightUpLeg  -23.5252 -22.6981 -0.0103479
RightLeg  11.9915 7.9662 1.16162
RightFoot  18.3137 -0.346868 2.52909
RightToes  -35.7033 -0.185101 -0.289587
306
root  -1.66423 34.1061 -3.72185 5.00539 50.6606 -2.95797
LeftUpLeg  -13.5267 10.8199 -1.20571
LeftLeg  14.8987 1.08104 0.212634
LeftFoot  -2.72432 0.00110742 -0.0721477
LeftToes  -10.8344 6.91067e-007 1.07128e-007
Spine  2.5775 0.803448 -2.88995
Spine1  4.63148 1.59086 -5.54334
RightShoulder  0.139565 9.15414 7.14211
RightArm  -4.46597 -4.40399 84.5338
RightForeArm  22.4932 21.7153 4.02243
RightHand  -0.398613 -6.01463 7.9378
LeftShoulder1  0.14804 -5.56791 -12.3641
LeftArm  -4.39095 6.81998 -67.6722
LeftForeArm  16.7865 -18.6813 -3.41199
LeftHand  -0.417493 4.89159 -10.1065
HEad  -18.596 -17.3523 3.50118
RightUpLeg  -23.5551 -21.6391 -0.342346
RightLeg  13.4552 9.03241 1.55113
RightFoot  17.8086 -0.38041 2.80513
RightToes  -36.4474 -0.190744 -0.294187
307
root  -1.67348 34.1157 -3.77159 4.54346 51.2942 -3.55404
LeftUpLeg  -13.4689 10.0694 -0.893513
LeftLeg  14.5427 1.25383 0.238849
LeftFoot  -2.47322 0.00124957 -0.0738306
LeftToes  -10.9925 6.91067e-007 1.07128e-007
Spine  2.65543 0.850433 -2.90168
Spine1  4.77057 1.67962 -5.53037
RightShoulder  0.151513 9.46562 7.39219
RightArm  -9.71545 -5.13293 83.7904
RightForeArm  22.6195 20.0996 3.69541
RightHand  -0.786449 -8.02469 11.5373
LeftShoulder1  0.154763 -5.40903 -12.0846
LeftArm  -3.53532 6.72362 -66.0332
LeftForeArm  20.36 -17.8603 -3.25205
LeftHand  -0.106771 3.98427 -3.43283
HEad  -19.0144 -17.9795 3.90857
RightUpLeg  -23.1259 -19.8734 -1.13931
RightLeg  14.3231 10.0273 1.87602
RightFoot  17.246 -0.403966 3.04083
RightToes  -36.0344 -0.185846 -0.290137
308
root  -1.70411 34.1525 -3.81823 4.19096 52.2134 -4.17146
LeftUpLeg  -13.4692 8.99528 -0.600145
LeftLeg  13.8657 1.53678 0.274418
LeftFoot  -1.91052 0.000968304 -0.0679513
LeftToes  -11.0687 6.91067e-007 1.07128e-007
Spine  2.65684 0.81083 -2.83995
Spine1  4.80161 1.59699 -5.38419
RightShoulder  0.147459 9.57716 7.15322
RightArm  -14.5555 -5.75607 82.9377
RightForeArm  22.4564 18.6206 3.40222
RightHand  -0.848603 -9.44071 10.6125
LeftShoulder1  0.155357 -5.27572 -11.7998
LeftArm  -2.88049 7.41642 -64.1913
LeftForeArm  22.7402 -18.221 -3.32225
LeftHand  0.204232 4.72315 4.57247
HEad  -19.4864 -18.6284 4.18213
RightUpLeg  -22.3091 -18.1682 -1.84668
RightLeg  14.4647 10.4152 1.97426
RightFoot  16.6045 -0.39059 3.05361
RightToes  -35.0784 -0.180409 -0.285667
309
root  -1.77054 34.1953 -3.85644 3.97795 52.7468 -4.69899
LeftUpLeg  -13.8451 9.10478 -0.384717
LeftLeg  13.7392 1.02785 0.180692
LeftFoot  -1.52046 -0.000547459 -0.0412667
LeftToes  -10.8586 6.91067e-007 1.07128e-007
Spine  2.60619 0.855133 -2.82774
Spine1  4.75201 1.63944 -5.2609
RightShoulder  0.128257 9.57039 6.93409
RightArm  -17.3977 -6.82466 81.6749
RightForeArm  19.6222 18.1679 3.3136
RightHand  -0.393122 -8.55289 5.61931
LeftShoulder1  0.153338 -4.9486 -11.8811
LeftArm  -3.80316 8.05664 -61.8505
LeftForeArm  22.896 -18.7951 -3.43477
LeftHand  0.295241 4.22746 7.60396
HEad  -19.761 -19.2781 4.58749
RightUpLeg  -21.5564 -16.7759 -2.21448
RightLeg  14.4868 10.0265 1.90533
RightFoot  15.9335 -0.34174 2.81894
RightToes  -35.5431 -0.183894 -0.288587
310
root  -1.83961 34.2286 -3.8966 4.10553 52.4184 -4.98226
LeftUpLeg  -14.0647 8.6019 -0.198266
LeftLeg  13.2631 1.8239 0.306285
LeftFoot  -1.135 -0.000419877 -0.0423992
LeftToes  -10.8663 6.91067e-007 1.07128e-007
Spine  2.492 1.15009 -2.94086
Spine1  4.59312 2.15592 -5.31908
RightShoulder  0.0949275 9.51954 6.82062
RightArm  -19.4617 -8.19799 80.3626
RightForeArm  16.917 18.7827 3.43369
RightHand  0.0521981 -7.49563 -0.426463
LeftShoulder1  0.149911 -4.32787 -12.0883
LeftArm  -5.68977 8.18255 -59.3594
LeftForeArm  22.7168 -18.7509 -3.4261
LeftHand  0.2589 4.18436 6.69695
HEad  -19.9855 -19.8518 5.15601
RightUpLeg  -21.1881 -15.8804 -2.20683
RightLeg  14.723 9.02797 1.75558
RightFoot  15.0805 -0.267148 2.39547
RightToes  -36.7126 -0.192769 -0.295809
311
root  -1.84036 34.2524 -3.89755 4.0374 52.9153 -5.4134
LeftUpLeg  -14.282 8.2796 0.00971391
LeftLeg  13.0104 1.65702 0.270646
LeftFoot  -0.933611 -0.00129639 -0.0227388
LeftToes  -10.8658 6.91067e-007 1.07128e-007
Spine  2.39148 1.20266 -2.99855
Spine1  4.4521 2.21279 -5.30648
RightShoulder  0.0673502 9.28514 6.74044
RightArm  -21.4008 -9.53451 79.1136
RightForeArm  17.3271 20.1487 3.70494
RightHand  0.353225 -7.4957 -5.01394
LeftShoulder1  0.14628 -3.92425 -12.1383
LeftArm  -8.09884 8.44657 -57.0276
LeftForeArm  22.1692 -18.1608 -3.31055
LeftHand  0.205302 4.57946 4.75395
HEad  -19.6712 -20.3307 5.48716
RightUpLeg  -20.3254 -16.7009 -1.98452
RightLeg  14.78 8.02502 1.57014
RightFoot  13.8364 -0.191568 1.95618
RightToes  -37.4677 -0.198577 -0.300375
312
root  -1.85504 34.2631 -3.87943 3.72146 53.271 -5.93452
LeftUpLeg  -14.3919 8.2939 0.31909
LeftLeg  12.9156 1.30121 0.210021
LeftFoot  -0.853933 -0.00212002 -0.00345896
LeftToes  -11.0408 6.91067e-007 1.07128e-007
Spine  2.34698 1.25178 -2.98432
Spine1  4.39831 2.30943 -5.21694
RightShoulder  0.0530689 9.2403 6.54581
RightArm  -22.5139 -10.4133 77.7979
RightForeArm  19.2776 20.3561 3.74684
RightHand  0.54917 -7.33287 -8.17709
LeftShoulder1  0.141736 -3.6487 -11.9066
LeftArm  -11.0943 9.07404 -55.2461
LeftForeArm  21.728 -17.4095 -3.16456
LeftHand  0.191972 5.18791 3.86039
HEad  -18.8612 -20.5332 5.6
RightUpLeg  -19.1354 -16.8818 -1.81874
RightLeg  14.7839 6.33737 1.24194
RightFoot  12.5246 -0.113127 1.40835
RightToes  -37.9462 -0.202288 -0.302491
313
root  -1.86712 34.2734 -3.86201 3.40574 53.2277 -6.22678
LeftUpLeg  -14.3873 8.17156 0.573307
LeftLeg  13.1203 1.41604 0.233854
LeftFoot  -0.957715 -0.00214299 0.00389387
LeftToes  -11.0712 6.91067e-007 1.07128e-007
Spine  2.38098 1.40473 -2.97512
Spine1  4.50152 2.64285 -5.17877
RightShoulder  0.040063 9.27006 6.15373
RightArm  -23.3486 -11.4142 76.6155
RightForeArm  20.3903 20.4204 3.75984
RightHand  0.583872 -6.92362 -9.25042
LeftShoulder1  0.134242 -3.49164 -11.5545
LeftArm  -14.0144 10.0969 -53.9472
LeftForeArm  22.2364 -16.7683 -3.04091
LeftHand  0.246814 5.38445 4.86895
HEad  -18.3022 -20.5622 5.604
RightUpLeg  -17.9324 -17.0689 -1.75933
RightLeg  15.2736 4.73918 0.971574
RightFoot  10.982 -0.0541857 0.941149
RightToes  -37.9482 -0.202304 -0.303695
314
root  -1.89478 34.2979 -3.85309 3.23579 52.9538 -6.46693
LeftUpLeg  -14.3184 8.08905 0.79758
LeftLeg  12.936 1.73013 0.280353
LeftFoot  -0.776414 -0.0022278 0.0127976
LeftToes  -11.1468 6.91067e-007 1.07128e-007
Spine  2.37233 1.60929 -2.92256
Spine1  4.51551 3.10304 -5.11248
RightShoulder  0.0312042 9.10719 6.06876
RightArm  -23.3598 -13.0453 75.3495
RightForeArm  19.9529 20.6697 3.81001
RightHand  0.57334 -6.67053 -9.43495
LeftShoulder1  0.119132 -3.09121 -11.3221
LeftArm  -15.4241 11.4407 -53.098
LeftForeArm  22.6174 -16.3074 -2.95256
LeftHand  0.327145 4.93509 7.20043
HEad  -18.4823 -20.3628 5.57639
RightUpLeg  -17.0582 -17.3279 -1.59983
RightLeg  16.1066 3.11966 0.687191
RightFoot  9.72418 -0.0163223 0.569391
RightToes  -38.3941 -0.205783 -0.305872
